<mxfile host="app.diagrams.net" modified="2023-05-03T06:23:13.853Z" agent="Mozilla/5.0 (Windows NT 10.0; Win64; x64) AppleWebKit/537.36 (KHTML, like Gecko) Chrome/112.0.0.0 Safari/537.36" etag="ikqOhgmfjSiDEfBOj17I" version="21.2.6" type="device" pages="2">
  <diagram name="페이지-1" id="I6-3P7hUmykBE60IjKNX">
    <mxGraphModel dx="1434" dy="788" grid="1" gridSize="10" guides="1" tooltips="1" connect="1" arrows="1" fold="1" page="1" pageScale="1" pageWidth="1169" pageHeight="827" math="0" shadow="0">
      <root>
        <mxCell id="0" />
        <mxCell id="1" parent="0" />
        <mxCell id="a8YFiBwSsblmSCCtqDZ1-2" style="edgeStyle=orthogonalEdgeStyle;rounded=0;orthogonalLoop=1;jettySize=auto;html=1;exitX=0.5;exitY=0.5;exitDx=0;exitDy=0;exitPerimeter=0;entryX=0;entryY=0.5;entryDx=0;entryDy=0;" parent="1" source="zvlowXMrkrkKGR_W6leB-1" target="zvlowXMrkrkKGR_W6leB-2" edge="1">
          <mxGeometry relative="1" as="geometry" />
        </mxCell>
        <mxCell id="zvlowXMrkrkKGR_W6leB-1" value="Actor" style="shape=umlActor;verticalLabelPosition=bottom;verticalAlign=top;html=1;outlineConnect=0;" parent="1" vertex="1">
          <mxGeometry x="150" y="310" width="30" height="60" as="geometry" />
        </mxCell>
        <mxCell id="zvlowXMrkrkKGR_W6leB-2" value="맛집 리스트" style="ellipse;whiteSpace=wrap;html=1;" parent="1" vertex="1">
          <mxGeometry x="270" y="300" width="120" height="80" as="geometry" />
        </mxCell>
        <mxCell id="zvlowXMrkrkKGR_W6leB-3" value="지역&amp;nbsp; 리스트" style="ellipse;whiteSpace=wrap;html=1;" parent="1" vertex="1">
          <mxGeometry x="465" y="220" width="120" height="80" as="geometry" />
        </mxCell>
        <mxCell id="zvlowXMrkrkKGR_W6leB-4" value="성별&amp;nbsp; 리스트" style="ellipse;whiteSpace=wrap;html=1;" parent="1" vertex="1">
          <mxGeometry x="465" y="300" width="120" height="80" as="geometry" />
        </mxCell>
        <mxCell id="zvlowXMrkrkKGR_W6leB-5" value="업종&amp;nbsp; 리스트" style="ellipse;whiteSpace=wrap;html=1;" parent="1" vertex="1">
          <mxGeometry x="465" y="380" width="120" height="80" as="geometry" />
        </mxCell>
        <mxCell id="zvlowXMrkrkKGR_W6leB-13" style="edgeStyle=orthogonalEdgeStyle;rounded=0;orthogonalLoop=1;jettySize=auto;html=1;exitX=0.5;exitY=1;exitDx=0;exitDy=0;entryX=0.5;entryY=0;entryDx=0;entryDy=0;" parent="1" source="zvlowXMrkrkKGR_W6leB-12" target="zvlowXMrkrkKGR_W6leB-3" edge="1">
          <mxGeometry relative="1" as="geometry" />
        </mxCell>
        <mxCell id="zvlowXMrkrkKGR_W6leB-12" value="카테고리별 영수증 등록 수의 기준에 따라 선정" style="ellipse;whiteSpace=wrap;html=1;" parent="1" vertex="1">
          <mxGeometry x="447.5" y="110" width="155" height="80" as="geometry" />
        </mxCell>
        <mxCell id="zvlowXMrkrkKGR_W6leB-15" value="" style="endArrow=none;html=1;rounded=0;entryX=0;entryY=0.5;entryDx=0;entryDy=0;" parent="1" target="zvlowXMrkrkKGR_W6leB-3" edge="1">
          <mxGeometry width="50" height="50" relative="1" as="geometry">
            <mxPoint x="390" y="340" as="sourcePoint" />
            <mxPoint x="440" y="290" as="targetPoint" />
          </mxGeometry>
        </mxCell>
        <mxCell id="zvlowXMrkrkKGR_W6leB-16" value="" style="endArrow=none;html=1;rounded=0;entryX=0;entryY=0.5;entryDx=0;entryDy=0;" parent="1" target="zvlowXMrkrkKGR_W6leB-4" edge="1">
          <mxGeometry width="50" height="50" relative="1" as="geometry">
            <mxPoint x="390" y="340" as="sourcePoint" />
            <mxPoint x="460" y="340" as="targetPoint" />
          </mxGeometry>
        </mxCell>
        <mxCell id="zvlowXMrkrkKGR_W6leB-17" value="" style="endArrow=none;html=1;rounded=0;entryX=0;entryY=0.5;entryDx=0;entryDy=0;exitX=1;exitY=0.5;exitDx=0;exitDy=0;" parent="1" source="zvlowXMrkrkKGR_W6leB-2" target="zvlowXMrkrkKGR_W6leB-5" edge="1">
          <mxGeometry width="50" height="50" relative="1" as="geometry">
            <mxPoint x="400" y="360" as="sourcePoint" />
            <mxPoint x="450" y="310" as="targetPoint" />
          </mxGeometry>
        </mxCell>
        <mxCell id="zvlowXMrkrkKGR_W6leB-18" value="다른 지역 검색" style="ellipse;whiteSpace=wrap;html=1;" parent="1" vertex="1">
          <mxGeometry x="700" y="170" width="120" height="80" as="geometry" />
        </mxCell>
        <mxCell id="MOm7Xn1h7bMQ6dcoKQRi-9" value="" style="endArrow=classic;html=1;rounded=0;entryX=1;entryY=0.5;entryDx=0;entryDy=0;exitX=0;exitY=0.5;exitDx=0;exitDy=0;dashed=1;" parent="1" source="zvlowXMrkrkKGR_W6leB-18" target="zvlowXMrkrkKGR_W6leB-3" edge="1">
          <mxGeometry relative="1" as="geometry">
            <mxPoint x="690" y="380" as="sourcePoint" />
            <mxPoint x="790" y="380" as="targetPoint" />
          </mxGeometry>
        </mxCell>
        <mxCell id="MOm7Xn1h7bMQ6dcoKQRi-10" value="&amp;lt;&amp;lt;extend&amp;gt;&amp;gt;" style="edgeLabel;resizable=0;html=1;align=center;verticalAlign=middle;" parent="MOm7Xn1h7bMQ6dcoKQRi-9" connectable="0" vertex="1">
          <mxGeometry relative="1" as="geometry" />
        </mxCell>
        <mxCell id="MS5B78Mr-HEXXy_sLQnA-1" value="Ranking list system" style="swimlane;whiteSpace=wrap;html=1;" vertex="1" parent="1">
          <mxGeometry x="250" y="60" width="600" height="440" as="geometry" />
        </mxCell>
      </root>
    </mxGraphModel>
  </diagram>
  <diagram id="Pt18aDYmUk6catPzQocB" name="페이지-2">
    <mxGraphModel dx="1434" dy="731" grid="1" gridSize="10" guides="1" tooltips="1" connect="1" arrows="1" fold="1" page="1" pageScale="1" pageWidth="1169" pageHeight="827" math="0" shadow="0">
      <root>
        <mxCell id="0" />
        <mxCell id="1" parent="0" />
        <mxCell id="ouuYe7Cti38Kjdv36YMQ-2" style="edgeStyle=orthogonalEdgeStyle;rounded=0;orthogonalLoop=1;jettySize=auto;html=1;exitX=0.5;exitY=0.5;exitDx=0;exitDy=0;exitPerimeter=0;entryX=0;entryY=0.5;entryDx=0;entryDy=0;" parent="1" source="5qXQqIPyX1wzmf-j8bkM-1" target="5qXQqIPyX1wzmf-j8bkM-3" edge="1">
          <mxGeometry relative="1" as="geometry" />
        </mxCell>
        <mxCell id="5qXQqIPyX1wzmf-j8bkM-1" value="Actor" style="shape=umlActor;verticalLabelPosition=bottom;verticalAlign=top;html=1;outlineConnect=0;" parent="1" vertex="1">
          <mxGeometry x="150" y="310" width="30" height="60" as="geometry" />
        </mxCell>
        <mxCell id="5qXQqIPyX1wzmf-j8bkM-3" value="마이페이지" style="ellipse;whiteSpace=wrap;html=1;" parent="1" vertex="1">
          <mxGeometry x="240" y="300" width="120" height="80" as="geometry" />
        </mxCell>
        <mxCell id="ouuYe7Cti38Kjdv36YMQ-1" style="rounded=0;orthogonalLoop=1;jettySize=auto;html=1;exitX=1;exitY=0.5;exitDx=0;exitDy=0;entryX=0.5;entryY=0.5;entryDx=0;entryDy=0;entryPerimeter=0;" parent="1" source="5qXQqIPyX1wzmf-j8bkM-5" target="5qXQqIPyX1wzmf-j8bkM-10" edge="1">
          <mxGeometry relative="1" as="geometry" />
        </mxCell>
        <mxCell id="5qXQqIPyX1wzmf-j8bkM-10" value="Actor" style="shape=umlActor;verticalLabelPosition=bottom;verticalAlign=top;html=1;outlineConnect=0;" parent="1" vertex="1">
          <mxGeometry x="1060" y="310" width="30" height="60" as="geometry" />
        </mxCell>
        <mxCell id="ouuYe7Cti38Kjdv36YMQ-6" value="" style="endArrow=none;html=1;rounded=0;entryX=0;entryY=0.5;entryDx=0;entryDy=0;" parent="1" target="5qXQqIPyX1wzmf-j8bkM-4" edge="1">
          <mxGeometry width="50" height="50" relative="1" as="geometry">
            <mxPoint x="360" y="340" as="sourcePoint" />
            <mxPoint x="410" y="290" as="targetPoint" />
          </mxGeometry>
        </mxCell>
        <mxCell id="ouuYe7Cti38Kjdv36YMQ-7" value="" style="endArrow=none;html=1;rounded=0;entryX=0;entryY=0.5;entryDx=0;entryDy=0;" parent="1" target="5qXQqIPyX1wzmf-j8bkM-5" edge="1">
          <mxGeometry width="50" height="50" relative="1" as="geometry">
            <mxPoint x="360" y="340" as="sourcePoint" />
            <mxPoint x="510" y="290" as="targetPoint" />
          </mxGeometry>
        </mxCell>
        <mxCell id="ouuYe7Cti38Kjdv36YMQ-8" value="" style="endArrow=none;html=1;rounded=0;entryX=0;entryY=0.5;entryDx=0;entryDy=0;" parent="1" target="5qXQqIPyX1wzmf-j8bkM-6" edge="1">
          <mxGeometry width="50" height="50" relative="1" as="geometry">
            <mxPoint x="360" y="340" as="sourcePoint" />
            <mxPoint x="510" y="290" as="targetPoint" />
          </mxGeometry>
        </mxCell>
        <mxCell id="ouuYe7Cti38Kjdv36YMQ-9" value="" style="endArrow=none;html=1;rounded=0;entryX=0;entryY=0.5;entryDx=0;entryDy=0;" parent="1" target="5qXQqIPyX1wzmf-j8bkM-7" edge="1">
          <mxGeometry width="50" height="50" relative="1" as="geometry">
            <mxPoint x="360" y="340" as="sourcePoint" />
            <mxPoint x="510" y="290" as="targetPoint" />
          </mxGeometry>
        </mxCell>
        <mxCell id="ouuYe7Cti38Kjdv36YMQ-10" value="" style="endArrow=none;html=1;rounded=0;entryX=0;entryY=0.5;entryDx=0;entryDy=0;exitX=1;exitY=0.5;exitDx=0;exitDy=0;" parent="1" source="5qXQqIPyX1wzmf-j8bkM-3" target="5qXQqIPyX1wzmf-j8bkM-8" edge="1">
          <mxGeometry width="50" height="50" relative="1" as="geometry">
            <mxPoint x="460" y="340" as="sourcePoint" />
            <mxPoint x="510" y="290" as="targetPoint" />
          </mxGeometry>
        </mxCell>
        <mxCell id="7DFpnDnsWynBfa_wWZq4-1" value="point system" style="swimlane;whiteSpace=wrap;html=1;" parent="1" vertex="1">
          <mxGeometry x="210" y="20" width="750" height="580" as="geometry" />
        </mxCell>
        <mxCell id="7DFpnDnsWynBfa_wWZq4-2" value="1회 100포인트" style="ellipse;whiteSpace=wrap;html=1;" parent="7DFpnDnsWynBfa_wWZq4-1" vertex="1">
          <mxGeometry x="600" y="30" width="120" height="50" as="geometry" />
        </mxCell>
        <mxCell id="7DFpnDnsWynBfa_wWZq4-3" value="2회 200포인트" style="ellipse;whiteSpace=wrap;html=1;" parent="7DFpnDnsWynBfa_wWZq4-1" vertex="1">
          <mxGeometry x="600" y="120" width="120" height="50" as="geometry" />
        </mxCell>
        <mxCell id="QFC2g77feeQvXxVvUkxI-2" value="영수증 등록" style="ellipse;whiteSpace=wrap;html=1;" parent="7DFpnDnsWynBfa_wWZq4-1" vertex="1">
          <mxGeometry x="430" y="70" width="120" height="50" as="geometry" />
        </mxCell>
        <mxCell id="7DFpnDnsWynBfa_wWZq4-5" value="" style="endArrow=classic;html=1;rounded=0;exitX=0;exitY=0.5;exitDx=0;exitDy=0;dashed=1;entryX=1;entryY=0;entryDx=0;entryDy=0;" parent="7DFpnDnsWynBfa_wWZq4-1" source="7DFpnDnsWynBfa_wWZq4-2" target="QFC2g77feeQvXxVvUkxI-2" edge="1">
          <mxGeometry relative="1" as="geometry">
            <mxPoint x="390" y="50" as="sourcePoint" />
            <mxPoint x="490" y="50" as="targetPoint" />
          </mxGeometry>
        </mxCell>
        <mxCell id="7DFpnDnsWynBfa_wWZq4-6" value="&amp;lt;&amp;lt;extend&amp;gt;&amp;gt;" style="edgeLabel;resizable=0;html=1;align=center;verticalAlign=middle;" parent="7DFpnDnsWynBfa_wWZq4-5" connectable="0" vertex="1">
          <mxGeometry relative="1" as="geometry" />
        </mxCell>
        <mxCell id="7DFpnDnsWynBfa_wWZq4-7" value="" style="endArrow=classic;html=1;rounded=0;exitX=0;exitY=0.5;exitDx=0;exitDy=0;dashed=1;entryX=1;entryY=1;entryDx=0;entryDy=0;" parent="7DFpnDnsWynBfa_wWZq4-1" source="7DFpnDnsWynBfa_wWZq4-3" target="QFC2g77feeQvXxVvUkxI-2" edge="1">
          <mxGeometry relative="1" as="geometry">
            <mxPoint x="400" y="94" as="sourcePoint" />
            <mxPoint x="332" y="140" as="targetPoint" />
          </mxGeometry>
        </mxCell>
        <mxCell id="7DFpnDnsWynBfa_wWZq4-8" value="&amp;lt;&amp;lt;extend&amp;gt;&amp;gt;" style="edgeLabel;resizable=0;html=1;align=center;verticalAlign=middle;" parent="7DFpnDnsWynBfa_wWZq4-7" connectable="0" vertex="1">
          <mxGeometry relative="1" as="geometry" />
        </mxCell>
        <mxCell id="QFC2g77feeQvXxVvUkxI-3" value="" style="endArrow=classic;html=1;rounded=0;entryX=0;entryY=0.5;entryDx=0;entryDy=0;dashed=1;exitX=1;exitY=0.5;exitDx=0;exitDy=0;" parent="7DFpnDnsWynBfa_wWZq4-1" source="5qXQqIPyX1wzmf-j8bkM-4" target="QFC2g77feeQvXxVvUkxI-2" edge="1">
          <mxGeometry relative="1" as="geometry">
            <mxPoint x="340" y="120" as="sourcePoint" />
            <mxPoint x="440" y="120" as="targetPoint" />
          </mxGeometry>
        </mxCell>
        <mxCell id="QFC2g77feeQvXxVvUkxI-4" value="&amp;lt;&amp;lt;include&amp;gt;&amp;gt;" style="edgeLabel;resizable=0;html=1;align=center;verticalAlign=middle;" parent="QFC2g77feeQvXxVvUkxI-3" connectable="0" vertex="1">
          <mxGeometry relative="1" as="geometry" />
        </mxCell>
        <mxCell id="5qXQqIPyX1wzmf-j8bkM-4" value="포인트 적립" style="ellipse;whiteSpace=wrap;html=1;" parent="7DFpnDnsWynBfa_wWZq4-1" vertex="1">
          <mxGeometry x="200" y="60" width="120" height="80" as="geometry" />
        </mxCell>
        <mxCell id="5qXQqIPyX1wzmf-j8bkM-5" value="포인트 사용" style="ellipse;whiteSpace=wrap;html=1;" parent="7DFpnDnsWynBfa_wWZq4-1" vertex="1">
          <mxGeometry x="300" y="170" width="120" height="80" as="geometry" />
        </mxCell>
        <mxCell id="5qXQqIPyX1wzmf-j8bkM-6" value="포인트 조회" style="ellipse;whiteSpace=wrap;html=1;" parent="7DFpnDnsWynBfa_wWZq4-1" vertex="1">
          <mxGeometry x="300" y="280" width="120" height="80" as="geometry" />
        </mxCell>
        <mxCell id="5qXQqIPyX1wzmf-j8bkM-7" value="포인트 적립 및 사용 목록 조회" style="ellipse;whiteSpace=wrap;html=1;" parent="7DFpnDnsWynBfa_wWZq4-1" vertex="1">
          <mxGeometry x="300" y="370" width="120" height="80" as="geometry" />
        </mxCell>
        <mxCell id="5qXQqIPyX1wzmf-j8bkM-8" value="누적 포인트 조회" style="ellipse;whiteSpace=wrap;html=1;" parent="7DFpnDnsWynBfa_wWZq4-1" vertex="1">
          <mxGeometry x="300" y="460" width="120" height="80" as="geometry" />
        </mxCell>
        <mxCell id="QFC2g77feeQvXxVvUkxI-5" value="잔여 포인트 조회" style="ellipse;whiteSpace=wrap;html=1;" parent="7DFpnDnsWynBfa_wWZq4-1" vertex="1">
          <mxGeometry x="480" y="265" width="120" height="50" as="geometry" />
        </mxCell>
        <mxCell id="QFC2g77feeQvXxVvUkxI-6" value="" style="endArrow=classic;html=1;rounded=0;entryX=0;entryY=0.5;entryDx=0;entryDy=0;dashed=1;exitX=1;exitY=1;exitDx=0;exitDy=0;" parent="7DFpnDnsWynBfa_wWZq4-1" source="5qXQqIPyX1wzmf-j8bkM-5" target="QFC2g77feeQvXxVvUkxI-5" edge="1">
          <mxGeometry relative="1" as="geometry">
            <mxPoint x="410" y="225" as="sourcePoint" />
            <mxPoint x="520" y="220" as="targetPoint" />
          </mxGeometry>
        </mxCell>
        <mxCell id="QFC2g77feeQvXxVvUkxI-7" value="&amp;lt;&amp;lt;include&amp;gt;&amp;gt;" style="edgeLabel;resizable=0;html=1;align=center;verticalAlign=middle;" parent="QFC2g77feeQvXxVvUkxI-6" connectable="0" vertex="1">
          <mxGeometry relative="1" as="geometry" />
        </mxCell>
      </root>
    </mxGraphModel>
  </diagram>
</mxfile>
